<?xml version="1.0" encoding="UTF-8"?>
<svg version="1.1" viewBox="0 0 2028 2048" width="522" height="527" xmlns="http://www.w3.org/2000/svg">
<path transform="translate(0)" d="m0 0h2028v2048h-2028z" fill="#FDFDFE"/>
<path transform="translate(997,236)" d="m0 0h14l27 2 25 5 26 8 29 12 22 12 19 12 14 10 17 14 15 14 18 18 9 11 9 10 15 20 10 14 8 12 10-1 26-5 21-3 29-2h39l30 3 19 3 26 6 26 9 31 15 20 12 16 12 11 9 13 12 11 11 11 14 10 14 9 15 11 22 9 23 6 20 6 26 4 29 2 32v18l-3 34-4 28-5 28 10 7 12 8 19 14 13 11 11 9 13 12 13 13 9 11 9 10 12 16 10 15 9 15 12 23 8 21 6 19 5 22 4 28v38l-3 22-5 23-12 36-11 23-13 22-12 17-11 14-11 13-12 13-17 17-11 9-14 12-15 11-14 10-11 7-2 2 1 10 5 28 4 34 1 16v29l-2 26-4 27-6 26-11 33-13 28-12 20-12 16-9 11-15 15-8 7-12 10-19 13-17 10-27 13-22 8-23 6-28 5-25 3-15 1h-18l-40-3-33-5-20-4h-5l-7 10-13 19-13 17-12 14-7 8-15 16-16 15-11 9-14 11-17 11-13 8-23 12-25 10-20 6-24 5-26 3h-26l-27-3-24-5-25-7-22-9-20-10-18-11-12-8-16-12-10-9-8-7-10-9-9-9-7-8-10-11-8-10-13-17-12-17-8-11-4-1-31 6-21 3-40 3h-22l-24-2-26-4-28-6-30-10-28-13-22-13-16-12-11-9-12-11-9-9-9-11-13-17-13-21-8-15-10-25-7-22-6-26-4-28-1-11v-56l4-35 6-33v-8l-16-10-17-12-12-9-11-9-14-12-21-21-9-11-11-13-14-19-10-16-8-14-10-21-9-24-7-28-4-25-1-15v-23l2-23 5-25 7-24 8-20 11-23 14-23 14-20 9-11 11-12 15-16 8-7 7-7 11-9 13-11 19-14 19-12h2l-4-23-5-35-2-19v-58l3-26 7-34 8-26 9-21 11-22 10-16 9-12 11-13 9-10 17-17 17-13 19-12 25-13 25-10 22-7 31-6 22-3 13-1h39l37 3 32 5 19 4 7-12 9-13 9-12 13-16 7-8 11-12 24-24 11-9 12-10 17-12 22-13 22-11 27-10 24-7 21-4z" fill="#FCFCFD"/>
<path transform="translate(606,399)" d="m0 0h39l37 3 32 5 21 5 2 2-2 5v3l4 2v2h3l2 5-1 5 2 3 3 1 2 5 5 4 2 7 3 1 2 6-2 10v6l-1 3 1 7v12l5 6h4v-2h2l-2 6-18 35-13 30-14 39-12 41-9 38v4h15v2l6 2 3 7 6 1 8 2-2 4 6 3 3 10 1 6-4 9 4 1 4 4-15 2-43 4-2 1-3 30-2 26-1 22v27l1 30 6-2 17-10h5l-1 4-1 2h-2l4 4 3 2-1 2h3l1 7 5 1 1 5-13 10-18 14-6 4 1 17 6 45 7 38 3-4 14-27 14-22 6-9 1 3-11 27-12 36-7 23 1 10 7 25 11 32 11 27 2 7-5-5-12-20-12-22-10-18-2-1-1 12-6 34-5 36-1 8v10l9 7 14 11 12 9 5 4 1 6h-2v2l-9 3-8 3-2 2-4 2h-3l-9-3-7-4-1 33v20l2 42 3 34 1 9 19 2 22 2v2h9v1h-5v2l4 2-1 3-2 1 6 4 2 4v3l4 2 3 3-2 5-3 7-3 3-1 3 15 5v1h-21v2h-36l3 16 6 25 7 25 12 37 11 28 12 27 13 26 2 3-1 3-4-3v-2h-2l-1-6v-2l-5-1v6l-3 5h-2l-1 11 3 14v5l4 2 2 9 2 1 2 11 1 4 2 1-1 5-1 2v6l3 3-1 13-1 6-10 1-4 2-10-1-5 5 1 4-5-4-48 8-31 3-16 1h-22l-24-2-26-4-28-6-30-10-28-13-22-13-16-12-11-9-12-11-9-9-9-11-13-17-13-21-8-15-10-25-7-22-6-26-4-28-1-11v-56l4-35 6-33v-8l-16-10-17-12-12-9-11-9-14-12-21-21-9-11-11-13-14-19-10-16-8-14-10-21-9-24-7-28-4-25-1-15v-23l2-23 5-25 7-24 8-20 11-23 14-23 14-20 9-11 11-12 15-16 8-7 7-7 11-9 13-11 19-14 19-12h2l-4-23-5-35-2-19v-58l3-26 7-34 8-26 9-21 11-22 10-16 9-12 11-13 9-10 17-17 17-13 19-12 25-13 25-10 22-7 31-6 22-3z" fill="#BB897A"/>
<path transform="translate(1360,399)" d="m0 0h39l30 3 19 3 26 6 26 9 31 15 20 12 16 12 11 9 13 12 11 11 11 14 10 14 9 15 11 22 9 23 6 20 6 26 4 29 2 32v18l-3 34-4 28-5 28 10 7 12 8 19 14 13 11 11 9 13 12 13 13 9 11 9 10 12 16 10 15 9 15 12 23 8 21 6 19 5 22 4 28v38l-3 22-5 23-12 36-11 23-13 22-12 17-11 14-11 13-12 13-17 17-11 9-14 12-15 11-14 10-11 7-2 2 1 10 5 28 4 34 1 16v29l-2 26-4 27-6 26-11 33-13 28-12 20-12 16-9 11-15 15-8 7-12 10-19 13-17 10-27 13-22 8-23 6-28 5-25 3-15 1h-18l-40-3-33-5-20-4h-5l-7 10-12 18h-2l1-7h3v-8l1-3-4 2-3 1v-6l-6-2-1-8-3-4 1-5-2-9-3-2 1-11 3-3-1-9-1-5 3-1 3-9 3-5 4-7 3-10 3-3 3-11 2-12 1-8 4-9 3-11 4-8 2-8v-1h-2l-2 4h-2l-1 4-3 6-5 5h-4l-2 6-1-2 3-9 12-28 13-36 11-37 10-42v-4l-30-1 2-1v-3h-4v-2l-5-1-2-4v-4h-10l-2-4 2-5 5-6 4-2 4-5v-2l3-1 2-7 2-1 1-3 28-3 9-2 2-13 3-30 2-38v-57l-14 7-10-3 4-7h-6v-3-3l-6 3v-6l-3-1 6-7 8-9 14-11 3-3v-9l-6-46-7-40-2-3-12 23-14 24-10 16-2 1 3-10 16-44 9-28 3-11-1-10-15-47-9-24-5-13 1-3 10 15 10 18 7 12 9 18 2-6 8-45 5-38v-10l-11-9-7-6-1-5-3-6-2-6-7-10-1-6 3-5h-2v-2l-2-1 2-3h6l14 8 15 9v-56l-2-39-4-41-1-2-45-4-2-1-13-1-3-2 9-1 7 2-1-3 1-2-2-1v-2l-7-3-1-3 2-4-2-8 3-8 8-3 1-3h2l-1-3 5-2 9-2 3-2 5-1h14l-8-35-9-33-9-27v-5l5-1-6-22-3-12-6-16-5-15-1-10h-2l-5-14-3-9-7-8-5-2-2-5v-9h-2l-3-9 1-8-3-1 1-7 2-4v-6l7-5 3-6 3-2h3l2 3h5l2-2 7-3 4-2v-7l1-3-3-1-3-9v-2h2l6 9 10-1 26-5 21-3z" fill="#BB897A"/>
<path transform="translate(997,236)" d="m0 0h14l27 2 25 5 26 8 29 12 22 12 19 12 14 10 17 14 15 14 18 18 9 11 9 10 15 20 10 14 3 12 3 3-1 10-7 5-5 2-1 1h-5l-2-4-6 2-2 6-7 5v8l-3 5v4l2 1v8l2 9h2l2 13 6 3 8 10 4 14 2 4v3h2l3 13 9 26 3 8 4 16 3 13h-6l5 17 9 29 9 36 3 13v5l-14 1-7 2-4 2-9 2-1 3h-2l-1 4-8 3-2 9 2 7-2 4v2l8 2-1 3 5 1-3 3v2l-9-1-4 1 13 1 2 1 45 4 2 3 4 41 2 39v40l-1 16-5-2-24-14h-6v3 2h2l-2 8 3 6 6 9 2 6 3 5-2 4-16-13-14-10-11-8-12-8-9-5 9 27 10 34 1 11-3-3-13-30-14-29-14-25-17-10-22-12-31-15-17-7-1-2 11 1 36 10 18 6 5 1-12-19-12-17-13-17-11-14-10-12-2-1-15 1-25 3-43 7-16 3 4 3 16 8 24 13 21 14-3 1-19-9-17-7-48-14-5-2-9 1-19 6-23 7-21 7-19 8-4-1 20-12 21-12 20-10h2v-2l-18-2-34-6-34-4-18-1-2 4-26 34-13 18-10 15-4 7 12-3 27-8 29-7 3 1-13 6-30 13-26 14-18 11-7 9-12 22-16 32-11 25h-1l1-9 8-32 10-29-9 5-16 11-12 9-5 4-4-2 1-2-3 1v-2l-3 1v-8h-3v-2l-6-4v-2h2l1-5-5 1-20 11-3-1-1-30v-27l2-34 3-34 1-10 3-2 43-4 14-2-7-4v-4h2l1-7-3-11v-3l-8-2 1-3 2-1-11-3-3-1-3-7-8-2v-1l-12-1-1-4 10-42 12-40 13-36 15-34 10-20 9-17h-2v2l-4 1-6-7v-12l-1-9 1-1v-9l2-8-1-5-4-1-1-7-4-2-3-4v-3l-5-1-1-4 1-4-1-5h-3v-2l-5-2 1-6v-3l-2-2 7-12 9-13 9-12 13-16 7-8 11-12 24-24 11-9 12-10 17-12 22-13 22-11 27-10 24-7 21-4z" fill="#EBB5A4"/>
<path transform="translate(1254,1181)" d="m0 0 2 1-10 39-11 33 11-6 16-12 16-11 17-13 2 1-11 11 3 2v5l5-2v3l2 1-1 1 5 1-1 4-2 2 9 3 12-6h2l1 6v51l-2 38-4 40-2 4-16 3-10 1h-11l-1 4h-2l-1 7-4 1v2l2 1-3 1-5 6-4 2-3 4-1 6 1 1 10 1 3 8 4 1v2h4v3l28 1 1 5-10 42-11 37-10 28-12 29-5 11v3l1-2h4l2-4 4-5 3-6 4-4h2l1-2v3l-4 13-3 6-2 8-5 13v7l-3 11-2 9-4 5-3 10-5 9-3 7-2 1v2l-2 1 2 10-1 5-2 4-2 9 4 2 2 9-1 6 3 3v8h5l2 4v3l4-3 3 1-1 9-3 3-1 7-13 17-12 14-7 8-15 16-16 15-11 9-14 11-17 11-13 8-23 12-25 10-20 6-24 5-26 3h-26l-27-3-24-5-25-7-22-9-20-10-18-11-12-8-16-12-10-9-8-7-10-9-9-9-7-8-10-11-8-10-13-17-12-17-5-8-1-5 6-5 10 1 9-3 5 1v-13l2-6-3-1-1-2v-6l3-7-3-1-2-10v-5l-3-1-2-9-3-2-3-12-1-12 2-6h2l2-7 1-4 5 1 1 6v2h2l4 4-2-5-16-32-15-36-10-28-10-32-8-31-4-17v-8h36v-2l16-1-10-5 1-4 3-3 3-8v-4l-5-4-3-7-6-4 3-1-1-4-2-1v-2l-4-1v-2h-11l-26-3-4-1-2-9-4-49-1-27v-20l1-33h3l9 5 4 1 2-1 4 1 2-3h2l1-2 7-2 6-2h3v-2h2l-1-5 5 2 14 10 19 13 3 1-8-22-9-34-2-9v-5l3 3 9 21 13 28 14 26 7 10 26 15 35 17 26 11 1 2-7-1-47-13-15-5h-3l14 22 10 14 10 13 11 14 9 11 4 5 5 1 28-3 47-7 19-4v-2l-17-8-24-14-20-12 3-1 34 13 30 10 21 6h9l27-8 29-10 29-11 5-1-4 4-15 9-39 21-6 2-1 2 29 5 44 7 29 3 2-5 20-26 13-17 12-17 8-12 3-5-35 11-29 7-8 1 4-3 20-9 26-13 19-9 15-9 6-5 9-16 12-23 11-23 7-16z" fill="#EBB5A4"/>
<path transform="translate(642,488)" d="m0 0h43l7 2-3 10-11 29-10 30-11 41-6 28-6 34-5 38-5 2-32 4-40 7-27 6-41 11-25 8-25 9-15 6h-2l-1-12v-44l4-30 5-22 9-27 11-23 8-13 10-14 12-14 14-14 10-8 18-12 21-11 24-9 23-6 23-4z" fill="#FDFDFE"/>
<path transform="translate(1e3 1581)" d="m0 0h5l10 8 13 10 21 16 15 10 22 14 20 12 18 10 23 12 33 15 8 4v3l-11 11-7 8-10 10-8 7-13 11-19 14-21 12-19 9-24 8-23 5-22 3h-19l-21-3-22-5-24-8-19-9-17-10-20-14-13-11-10-9-19-19-7-8-4-4v-2l26-11 42-21 24-13 22-14 24-16 19-14 18-14z" fill="#FDFDFE"/>
<path transform="translate(1577,1377)" d="m0 0h2l1 12v41l-3 28-5 24-6 20-6 16-10 20-12 18-8 10-9 10-13 13-14 11-13 9-23 12-21 8-20 6-27 5-17 2-25 1-31-2-2-1 3-9 10-26 11-34 10-37 7-31 9-55 2-17 1-2 49-7 44-8 32-8 30-9 32-11z" fill="#FDFDFE"/>
<path transform="translate(1323,488)" d="m0 0h41l24 2 23 4 23 6 21 8 22 11 18 12 10 8 10 9 10 10 9 11 10 14 9 16 9 19 8 24 6 26 3 26 1 15v28l-1 16-5-1-26-10-36-12-30-8-37-9-46-8-30-4-2-3-8-54-8-40-8-31-9-30-10-29-8-20v-4z" fill="#FDFDFE"/>
<path transform="translate(989,338)" d="m0 0h30l25 4 15 4 20 7 18 8 17 9 17 12 16 13 11 9 25 25 6 7-1 3-25 11-36 18-23 13-23 14-22 14-14 10-19 14-11 9-10 8-4-1-7-6-12-9-19-14-33-22-23-14-21-12-34-18-24-11-10-4-1-2 5-5 9-10 7-8 12-11 11-10 12-9 14-10 19-11 19-9 27-9 23-5z" fill="#FDFDFE"/>
<path transform="translate(1630,879)" d="m0 0 8 6 17 16 11 11 18 22 11 16 9 15 13 27 7 23 5 25 2 28-2 25-5 25-9 26-12 25-14 22-10 12-7 9-11 12-16 16-11 9-3 2-3-4-10-23-14-29-12-23-9-15-15-24-17-25-13-18-11-14-8-10 1-4 10-12 14-19 9-12 14-20 11-18 16-27 17-33 14-30z" fill="#FDFDFE"/>
<path transform="translate(376,879)" d="m0 0 3 4 10 23 13 27 12 22 10 18 13 21 19 28 12 16 11 14 9 11-1 5-9 10-14 19-12 17-10 15-13 20-11 19-10 18-13 25-11 24-6 15h-4l-11-10-2-1v-2l-4-2-15-15-7-8-12-15-12-18-11-19-10-23-6-18-5-24-2-21v-19l2-21 6-26 7-20 12-25 14-22 20-25 7-7 7-8 7-7 8-7z" fill="#FDFDFE"/>
<path transform="translate(429,1377)" d="m0 0 29 11 43 14 29 8 33 7 33 6 41 6 3 1 7 49 7 38 9 37 9 30 11 32 9 23-1 1-28 2-29-1-29-4-25-6-21-7-18-8-15-8-18-13-10-9-8-7-13-14-10-13-11-18-11-23-9-27-5-24-3-23-1-15v-23l1-21z" fill="#FDFDFE"/>
<path transform="translate(1231,505)" d="m0 0h5l8 14 10 19 13 30 11 29 14 43 10 40 3 13v4l-69 3-24 2-57 8-5-1-9-11-14-19-13-16-9-11-12-14-9-10-12-13-8-8-7-8-6-5 1-4 24-15 21-13 26-14 34-16 29-12 31-11z" fill="#FDFDFE"/>
<path transform="translate(1475,1113)" d="m0 0 4 2 16 25 10 17 15 28 11 22 14 33 13 37 5 16v5l-9 6-32 16-29 12-30 11-30 10-40 10-15 3h-6l-1-1-2-59-3-35-3-26-4-27v-6l9-7 12-9 26-20 16-13 10-9 8-7 13-12z" fill="#FDFDFE"/>
<path transform="translate(530,1112)" d="m0 0 7 6 24 24 8 7 10 9 11 9 13 11 13 10 32 24 1 4-5 30-4 34-2 26-1 22-1 39-7-1-24-5-30-8-36-12-30-11-23-10-29-14-12-7-1-5 9-29 9-25 13-30 14-29 9-17 14-24 12-19z" fill="#FDFDFE"/>
<path transform="translate(772,505)" d="m0 0 10 3 26 8 21 8 32 14 37 18 23 13 20 12 13 8 2 1-1 4-12 12-7 8-7 7-7 8-10 11-9 11-7 8-11 14-9 11-14 19-5 7-12-1-42-6-17-2-34-2-49-2-1-3 10-42 12-40 13-36 15-34 10-20 9-16z" fill="#FDFDFE"/>
<path transform="translate(1151,1420)" d="m0 0 32 5 37 4 45 3 40 1-1 8-9 38-11 37-10 28-12 29-14 30-10 18-2 4-7-1-40-13-26-11-35-16-24-12-22-13-22-14-9-6v-3l8-7 11-11 7-8 7-7 7-8 11-12 11-14 8-9 9-12 10-14 9-12z" fill="#FDFDFE"/>
<path transform="translate(631,764)" d="m0 0 5 1 2 59 3 37 5 38 2 11v9l-18 13-13 10-17 13-13 11-14 12-24 22-15 14-4 3-8-11-12-19-14-25-15-29-12-26-12-31-11-33-2-10 23-13 28-13 37-15 33-11 43-12z" fill="#FDFDFE"/>
<path transform="translate(1372,764)" d="m0 0 8 1 26 6 29 8 32 10 33 13 25 11 36 18 2 2-1 7-7 23-16 41-12 26-14 28-14 24-21 35h-3l-23-23-8-7-15-14-22-18-17-13-13-10-17-12-1-7 6-44 3-27 2-41 1-29z" fill="#FDFDFE"/>
<path transform="translate(854,1420)" d="m0 0 4 1 10 14 12 16 11 14 13 16 11 12 7 8 9 10 16 17 9 8v4l-11 6-20 12-21 12-20 11-23 11-20 9-28 11-36 12h-6l-6-9-15-30-15-36-10-28-10-32-8-31-4-17v-8l60-2 39-3 36-5z" fill="#FDFDFE"/>
<path transform="translate(688,1237)" d="m0 0 14 8 34 18 27 13 20 9 3 5 24 51 12 22 9 16v3l-18 1h-38l-41-2-30-3-11-2-2-9-4-49-1-27v-20l1-33z" fill="#FDFDFE"/>
<path transform="translate(1e3 626)" d="m0 0 4 2 11 9 10 8 15 13 10 9 8 7 14 14 8 7 17 17 5 6-1 3-23 6-45 15-31 12-10-3-38-14-34-11-21-6 2-4 11-12 24-24 8-7 15-14 11-9 16-13 11-9z" fill="#FDFDFE"/>
<path transform="translate(1318,1238)" d="m0 0h2l1 6v51l-2 38-4 40-2 4-27 3-32 2-29 1h-20l-28-1-1-3 13-22 15-29 11-23 8-18 5-4 35-16 28-14 21-12z" fill="#FDFDFE"/>
<path transform="translate(656,964)" d="m0 0h3l10 35 12 36 11 28-1 6-12 31-11 33-9 33-4-1-16-16-8-7-7-8-13-13-7-8-11-12-9-11-14-17-5-7 1-4 11-14 22-26 24-26 24-24 8-7z" fill="#FDFDFE"/>
<path transform="translate(1186,748)" d="m0 0h46l49 3 32 3 2 3 4 41 2 39v40l-1 16-5-2-24-14-21-11-36-16-8-4-5-6-13-29-8-16-13-25-11-19 1-2z" fill="#FDFDFE"/>
<path transform="translate(773,748)" d="m0 0h56l1 4-13 24-9 16-14 29-8 19-3 6-17 7-15 7-25 12-24 13-12 7-3-1-1-30v-27l2-34 3-34 1-10 3-2 43-4z" fill="#FDFDFE"/>
<path transform="translate(1e3 1377)" d="m0 0 7 1 24 9 37 13 17 5 16 4 2 1-1 4-42 42-8 7-12 11-8 7-15 13-13 10-5-1-10-9-14-11-14-12-7-7-8-7-16-15-21-21-4-5-4-3v-2l16-5 29-9 37-13z" fill="#FDFDFE"/>
<path transform="translate(1349,964)" d="m0 0 4 2 42 42 7 8 10 11 9 11 12 14 9 12-2 5-11 13-9 11-9 10-7 8-9 10-11 12-33 33-3-1-10-35-12-36-11-29 1-5 8-19 13-38 11-38z" fill="#FDFDFE"/>
<path transform="translate(1264,971)" d="m0 0 4 4 11 18 13 23 9 18 2-1v4l-3 1-1 9-7 1-1 4-12-38-9-25-6-15z" fill="#EBB5A4"/>
<path transform="translate(1298,1084)" d="m0 0 2 1 1 10h2l-1 2-4 5-13 25-13 22-7 11-2 1 3-10 16-44 5-15 1 2 5-5z" fill="#EAB4A3"/>
<path transform="translate(711,1085)" d="m0 0 4 1 3 9 3 7h2l9 26 11 27 2 7-5-5-12-20-12-22-7-13-1-8 2-5z" fill="#E9B4A3"/>
<path transform="translate(742,972)" d="m0 0 1 3-11 27-12 36-2-2-2 4h-8l-1-4-2-1 7-12 8-16 9-15 12-19z" fill="#E9B3A2"/>
<path transform="translate(1295,1212)" d="m0 0 2 1-11 11h-2l-1 3-2-4z" fill="#DEA998"/>
<path transform="translate(761,511)" d="m0 0h2l-2 6-1 2v5h-3v-2h-2l1-4z" fill="#ECB6A5"/>
<path transform="translate(763,1611)" d="m0 0 3 4 3 5-1 3-4-3v-2h-2l-1-4z" fill="#C59282"/>
<path transform="translate(1284,409)" d="m0 0 3 1-3 3-1 3-5-3-4-2z" fill="#E8B3A2"/>
</svg>
